HIERARCHY
ROOT Pelvis
{
	OFFSET 0.000000 0.000000 0.000000
	CHANNELS 6 Xposition Yposition Zposition Xrotation Yrotation Zrotation
	JOINT LeftUpLeg_virtual
	{
		OFFSET 0.000000 0.000000 0.000000
		CHANNELS 3 Xrotation Yrotation Zrotation
		JOINT LeftUpLeg
		{
			OFFSET 18.735201 -5.666702 -4.541200
			CHANNELS 3 Xrotation Yrotation Zrotation
			JOINT LeftLeg
			{
				OFFSET -0.021200 -31.938179 0.493100
				CHANNELS 3 Xrotation Yrotation Zrotation
				JOINT LeftFoot
				{
					OFFSET 0.021200 -31.938179 -4.336299
					CHANNELS 3 Xrotation Yrotation Zrotation
					JOINT LeftToeBase
					{
						OFFSET 0.943001 -26.722000 15.023500
						CHANNELS 3 Xrotation Yrotation Zrotation
						End Site
						{
							OFFSET 0 0 0
						}
					}
				}
			}
		}
	}
	JOINT RightUpLeg_virtual
	{
		OFFSET 0.000000 0.000000 0.000000
		CHANNELS 3 Xrotation Yrotation Zrotation
		JOINT RightUpLeg
		{
			OFFSET -18.735201 -5.666702 -4.541200
			CHANNELS 3 Xrotation Yrotation Zrotation
			JOINT RightLeg
			{
				OFFSET 0.018946 -31.938133 0.493100
				CHANNELS 3 Xrotation Yrotation Zrotation
				JOINT RightFoot
				{
					OFFSET -0.018946 -31.938126 -4.336299
					CHANNELS 3 Xrotation Yrotation Zrotation
					JOINT RightToeBase
					{
						OFFSET -0.943001 -26.722004 15.023500
						CHANNELS 3 Xrotation Yrotation Zrotation
						End Site
						{
							OFFSET 0 0 0
						}
					}
				}
			}
		}
	}
	JOINT Hips_virtual
	{
		OFFSET 0.000000 0.000000 0.000000
		CHANNELS 3 Xrotation Yrotation Zrotation
		JOINT Hips
		{
			OFFSET -0.000000 -0.000000 -0.000000
			CHANNELS 3 Xrotation Yrotation Zrotation
			JOINT Spine
			{
				OFFSET 0.000000 10.199997 -0.299500
				CHANNELS 3 Xrotation Yrotation Zrotation
				JOINT Spine1
				{
					OFFSET 0.000000 11.900002 -1.516600
					CHANNELS 3 Xrotation Yrotation Zrotation
					JOINT Spine2
					{
						OFFSET 0.000000 13.600006 -2.842500
						CHANNELS 3 Xrotation Yrotation Zrotation
						JOINT Neck_virtual
						{
							OFFSET 0.000000 0.000000 0.000000
							CHANNELS 3 Xrotation Yrotation Zrotation
							JOINT Neck
							{
								OFFSET 0.000000 9.624100 -2.890100
								CHANNELS 3 Xrotation Yrotation Zrotation
								JOINT Head
								{
									OFFSET 0.000000 14.068802 -1.351900
									CHANNELS 3 Xrotation Yrotation Zrotation
									End Site
									{
										OFFSET 0 0 0
									}
								}
							}
						}
						JOINT LeftShoulder_virtual
						{
							OFFSET 0.000000 0.000000 0.000000
							CHANNELS 3 Xrotation Yrotation Zrotation
							JOINT LeftShoulder
							{
								OFFSET 15.263000 10.923401 -0.547700
								CHANNELS 3 Xrotation Yrotation Zrotation
								JOINT LeftArm
								{
									OFFSET 25.438599 -2.830597 -13.032500
									CHANNELS 3 Xrotation Yrotation Zrotation
									JOINT LeftForeArm
									{
										OFFSET 29.960503 0.000000 0.000000
										CHANNELS 3 Xrotation Yrotation Zrotation
										JOINT LeftHand
										{
											OFFSET 27.849251 0.000000 0.000000
											CHANNELS 3 Xrotation Yrotation Zrotation
											End Site
											{
												OFFSET 0 0 0
											}
										}
									}
								}
							}
						}
						JOINT RightShoulder_virtual
						{
							OFFSET 0.000000 0.000000 0.000000
							CHANNELS 3 Xrotation Yrotation Zrotation
							JOINT RightShoulder
							{
								OFFSET -15.263000 10.923401 -0.547700
								CHANNELS 3 Xrotation Yrotation Zrotation
								JOINT RightArm
								{
									OFFSET -25.438599 -2.830597 -13.032500
									CHANNELS 3 Xrotation Yrotation Zrotation
									JOINT RightForeArm
									{
										OFFSET -29.960503 0.000000 0.000000
										CHANNELS 3 Xrotation Yrotation Zrotation
										JOINT RightHand
										{
											OFFSET -27.849251 0.000000 0.000000
											CHANNELS 3 Xrotation Yrotation Zrotation
											End Site
											{
												OFFSET 0 0 0
											}
										}
									}
								}
							}
						}
					}
				}
			}
		}
	}
}
MOTION
Frames: 12
Frame Time: 0.03333333
-1.650811 91.998917 1.762947 0.000000 0.000000 0.000000 0.899136 -27.076304 1.222075 -19.529430 16.209115 12.682527 23.955811 12.936827 -1.724318 -4.044146 -1.608095 -8.599796 0.000000 0.000000 0.000000 0.852157 -25.869384 0.849285 -12.747091 -0.768127 -11.180314 15.239668 8.767616 0.995338 -7.337575 -0.480507 10.038321 0.000000 0.000000 0.000000 0.744457 -26.680905 1.308945 -0.263223 -0.196513 -1.275563 7.799749 -0.045774 -2.851518 0.786505 -1.111790 2.482036 0.000000 0.000000 0.000000 0.729435 -0.139823 2.246816 -1.349680 2.981118 -1.367450 0.000000 0.000000 0.000000 0.634347 -0.276155 2.004615 0.395262 -10.494283 0.546894 -57.104702 -0.593703 -41.250098 10.313391 -60.966125 12.103125 0.000000 0.000000 0.000000 0.912550 -0.074919 2.182772 4.405618 5.644629 6.736530 -3.060021 -0.448019 63.263767 9.586620 19.658860 -3.632780 0.000000 0.000000 0.000000 
-1.652339 92.003342 1.807289 0.000000 0.000000 0.000000 0.918242 -27.057224 1.211796 -19.552311 16.203992 12.718712 23.979534 12.957405 -1.764705 -4.060649 -1.603591 -8.605775 0.000000 0.000000 0.000000 0.889495 -25.826018 0.854392 -12.792428 -0.828003 -11.166799 15.289421 8.753806 1.009492 -7.330742 -0.511365 9.973119 0.000000 0.000000 0.000000 0.766609 -26.634572 1.309939 -0.262727 -0.205425 -1.269516 7.832677 -0.034822 -2.809956 0.796419 -1.112603 2.481142 0.000000 0.000000 0.000000 0.745586 -0.140562 2.248696 -1.328135 2.978922 -1.373078 0.000000 0.000000 0.000000 0.644653 -0.277910 1.993856 0.394533 -10.405062 0.536054 -57.142735 -0.559704 -41.252041 10.313680 -61.041708 12.109114 0.000000 0.000000 0.000000 0.930406 -0.076913 2.179851 4.412788 5.710398 6.729262 -3.045734 -0.312972 63.257264 9.568634 19.525740 -3.638214 0.000000 0.000000 0.000000 
-1.660984 91.996841 1.831123 0.000000 0.000000 0.000000 1.000294 -26.972644 1.216070 -19.651101 16.147447 12.798303 24.013618 12.992972 -1.818120 -4.104819 -1.582536 -8.612633 0.000000 0.000000 0.000000 0.978212 -25.735816 0.876084 -12.863443 -0.939413 -11.163014 15.343576 8.729975 1.021570 -7.353439 -0.529272 9.935560 0.000000 0.000000 0.000000 0.863727 -26.543720 1.328876 -0.248251 -0.202454 -1.260211 7.880854 -0.000985 -2.760156 0.822691 -1.086731 2.479206 0.000000 0.000000 0.000000 0.782855 -0.119020 2.248508 -1.288787 3.021305 -1.388553 0.000000 0.000000 0.000000 0.669270 -0.256063 1.985231 0.397265 -10.301205 0.514133 -57.235155 -0.491614 -41.265851 10.320020 -61.209847 12.127675 0.000000 0.000000 0.000000 0.965772 -0.054203 2.174900 4.409301 5.811097 6.736883 -2.927169 -0.226708 63.227724 9.537341 19.307714 -3.658790 0.000000 0.000000 0.000000 
-1.675501 91.979698 1.833817 0.000000 0.000000 0.000000 1.138818 -26.810227 1.237771 -19.810603 16.038937 12.910920 24.046470 13.034569 -1.887412 -4.190490 -1.555617 -8.621131 0.000000 0.000000 0.000000 1.109496 -25.581307 0.914983 -12.953299 -1.100938 -11.174114 15.420465 8.697617 1.029775 -7.428584 -0.542198 9.911636 0.000000 0.000000 0.000000 1.018400 -26.389209 1.363714 -0.237000 -0.210113 -1.271298 7.928474 0.046621 -2.711498 0.857390 -1.041481 2.470276 0.000000 0.000000 0.000000 0.827895 -0.083546 2.240718 -1.235330 3.108717 -1.420022 0.000000 0.000000 0.000000 0.702758 -0.218900 1.973502 0.405590 -10.187926 0.495124 -57.375939 -0.381033 -41.298199 10.337921 -61.462543 12.150488 0.000000 0.000000 0.000000 1.014695 -0.014295 2.166464 4.392803 5.930877 6.753891 -2.732508 -0.226417 63.221809 9.494836 19.026018 -3.697874 0.000000 0.000000 0.000000 
-1.695788 91.953644 1.832500 0.000000 0.000000 0.000000 1.320792 -26.561740 1.279236 -20.013465 15.869509 13.037780 24.070919 13.067061 -1.975609 -4.314642 -1.538121 -8.636131 0.000000 0.000000 0.000000 1.271506 -25.354292 0.968825 -13.057783 -1.321250 -11.194022 15.548369 8.653584 1.035289 -7.563218 -0.557646 9.870539 0.000000 0.000000 0.000000 1.211032 -26.157972 1.414052 -0.246099 -0.221369 -1.282056 7.956425 0.095605 -2.668750 0.891618 -0.987442 2.452818 0.000000 0.000000 0.000000 0.868079 -0.043435 2.223076 -1.172926 3.241056 -1.475874 0.000000 0.000000 0.000000 0.740902 -0.174100 1.958435 0.421284 -10.072432 0.490192 -57.585660 -0.214489 -41.364333 10.371494 -61.765906 12.171031 0.000000 0.000000 0.000000 1.072263 0.032826 2.151932 4.364578 6.045288 6.767986 -2.488713 -0.325806 63.287570 9.445513 18.687888 -3.748406 0.000000 0.000000 0.000000 
-1.722927 91.922760 1.848022 0.000000 0.000000 0.000000 1.523638 -26.224907 1.338203 -20.234900 15.627440 13.155340 24.084504 13.076647 -2.086165 -4.460243 -1.543804 -8.658451 0.000000 0.000000 0.000000 1.457998 -25.037655 1.034222 -13.167547 -1.614470 -11.213840 15.744283 8.596071 1.036695 -7.778853 -0.585219 9.789576 0.000000 0.000000 0.000000 1.423806 -25.835144 1.477561 -0.254198 -0.237196 -1.293010 7.950910 0.138082 -2.634226 0.919144 -0.934823 2.429560 0.000000 0.000000 0.000000 0.893635 -0.007220 2.195744 -1.103400 3.416639 -1.563864 0.000000 0.000000 0.000000 0.779386 -0.130138 1.941255 0.444491 -9.961001 0.504775 -57.882691 0.007848 -41.492935 10.401320 -62.049455 12.170310 0.000000 0.000000 0.000000 1.134125 0.079333 2.132117 4.326713 6.144020 6.764134 -2.219787 -0.519515 63.422835 9.390490 18.305204 -3.804498 0.000000 0.000000 0.000000 
-1.760391 91.891151 1.892117 0.000000 0.000000 0.000000 1.739349 -25.800532 1.412020 -20.465513 15.284276 13.247706 24.087144 13.057286 -2.222100 -4.591406 -1.584366 -8.679976 0.000000 0.000000 0.000000 1.663485 -24.616616 1.106720 -13.263100 -1.987537 -11.226160 15.987939 8.524416 1.035579 -8.096540 -0.627494 9.662465 0.000000 0.000000 0.000000 1.640277 -25.395825 1.552079 -0.263038 -0.246391 -1.288142 7.907213 0.176562 -2.603497 0.938909 -0.884462 2.404648 0.000000 0.000000 0.000000 0.905843 0.022481 2.161890 -1.025537 3.631760 -1.690589 0.000000 0.000000 0.000000 0.815075 -0.090163 1.926038 0.477446 -9.849344 0.524996 -58.287509 0.277739 -41.702505 10.407893 -62.254251 12.130158 0.000000 0.000000 0.000000 1.193030 0.119989 2.110532 4.281013 6.227774 6.723913 -1.939354 -0.768575 63.604402 9.329343 17.891399 -3.858738 0.000000 0.000000 0.000000 
-1.806256 91.861275 1.968403 0.000000 0.000000 0.000000 1.953076 -25.269255 1.493523 -20.716273 14.821044 13.307569 24.104953 13.014468 -2.387947 -4.675847 -1.657086 -8.677713 0.000000 0.000000 0.000000 1.876614 -24.083892 1.183282 -13.317418 -2.447190 -11.235410 16.267047 8.440499 1.033199 -8.534282 -0.685963 9.489093 0.000000 0.000000 0.000000 1.849641 -24.834747 1.632781 -0.278128 -0.250258 -1.281467 7.837758 0.216891 -2.568800 0.953920 -0.834334 2.380747 0.000000 0.000000 0.000000 0.908841 0.050670 2.127746 -0.939489 3.878554 -1.856709 0.000000 0.000000 0.000000 0.850011 -0.051313 1.914915 0.517372 -9.740731 0.528746 -58.757194 0.570539 -41.997143 10.357229 -62.307540 12.014252 0.000000 0.000000 0.000000 1.246434 0.157354 2.088344 4.231002 6.318503 6.646435 -1.626359 -1.017622 63.802081 9.261743 17.477319 -3.901368 0.000000 0.000000 0.000000 
-1.858725 91.830208 2.067429 0.000000 0.000000 0.000000 2.151805 -24.603137 1.573654 -21.003689 14.232908 13.339128 24.166169 12.948371 -2.587417 -4.703201 -1.754033 -8.643518 0.000000 0.000000 0.000000 2.081652 -23.409768 1.259486 -13.311438 -3.000742 -11.257773 16.569503 8.341204 1.031876 -9.090238 -0.764678 9.275567 0.000000 0.000000 0.000000 2.044212 -24.143923 1.713503 -0.294518 -0.260668 -1.280186 7.753441 0.265267 -2.528319 0.968336 -0.776208 2.359250 0.000000 0.000000 0.000000 0.901563 0.085900 2.096623 -0.847434 4.146481 -2.056344 0.000000 0.000000 0.000000 0.887244 -0.003259 1.908195 0.562049 -9.623809 0.498457 -59.236749 0.870254 -42.304979 10.263247 -62.224389 11.834155 0.000000 0.000000 0.000000 1.293339 0.200824 2.067763 4.176744 6.445136 6.538149 -1.252868 -1.236939 63.978642 9.184080 17.111005 -3.926394 0.000000 0.000000 0.000000 
-1.923247 91.795868 2.176605 0.000000 0.000000 0.000000 2.325306 -23.787718 1.643396 -21.329914 13.528302 13.354106 24.275513 12.862550 -2.818001 -4.690498 -1.863477 -8.584254 0.000000 0.000000 0.000000 2.263355 -22.583495 1.330033 -13.239730 -3.654354 -11.303338 16.888515 8.217257 1.039240 -9.740768 -0.866832 9.040069 0.000000 0.000000 0.000000 2.212116 -23.318855 1.786115 -0.319930 -0.273648 -1.281473 7.665069 0.330846 -2.484743 0.979417 -0.700716 2.338065 0.000000 0.000000 0.000000 0.888294 0.138458 2.066274 -0.752404 4.427145 -2.278394 0.000000 0.000000 0.000000 0.924902 0.063376 1.903227 0.602431 -9.474319 0.421011 -59.659954 1.188376 -42.513160 10.185646 -62.128391 11.647320 0.000000 0.000000 0.000000 1.334535 0.261161 2.050302 4.115688 6.620207 6.407614 -0.788586 -1.427537 64.115341 9.104194 16.860559 -3.935757 0.000000 0.000000 0.000000 
-1.999318 91.755180 2.288696 0.000000 0.000000 0.000000 2.467200 -22.816561 1.696115 -21.686042 12.739417 13.363670 24.414298 12.768594 -3.075165 -4.666438 -1.967097 -8.508192 0.000000 0.000000 0.000000 2.415583 -21.608355 1.389033 -13.104617 -4.401872 -11.372294 17.212348 8.064321 1.059156 -10.441078 -0.984930 8.803011 0.000000 0.000000 0.000000 2.350541 -22.361143 1.844190 -0.339023 -0.289669 -1.284795 7.578903 0.418503 -2.443795 0.986482 -0.601617 2.314536 0.000000 0.000000 0.000000 0.875564 0.217551 2.031954 -0.657815 4.709282 -2.510103 0.000000 0.000000 0.000000 0.958300 0.157412 1.898024 0.625595 -9.265839 0.286200 -59.958945 1.528134 -42.528986 10.176961 -62.146477 11.508259 0.000000 0.000000 0.000000 1.372550 0.350010 2.033599 4.044886 6.838837 6.269796 -0.228558 -1.601260 64.197392 9.024150 16.765710 -3.931357 0.000000 0.000000 0.000000 
-2.088614 91.708466 2.396660 0.000000 0.000000 0.000000 2.581401 -21.707079 1.729820 -22.049203 11.899936 13.374749 24.556875 12.682763 -3.353559 -4.652421 -2.050593 -8.419915 0.000000 0.000000 0.000000 2.537399 -20.497157 1.432159 -12.893698 -5.221099 -11.448826 17.510693 7.882524 1.089468 -11.148789 -1.110712 8.578758 0.000000 0.000000 0.000000 2.466180 -21.272506 1.884251 -0.357225 -0.302482 -1.282147 7.492878 0.531581 -2.408929 0.994129 -0.477827 2.286744 0.000000 0.000000 0.000000 0.866712 0.324354 1.991363 -0.564871 4.982679 -2.744223 0.000000 0.000000 0.000000 0.984702 0.278774 1.889036 0.622887 -8.979474 0.076789 -60.119906 1.894430 -42.318370 10.273321 -62.368827 11.454440 0.000000 0.000000 0.000000 1.408366 0.468015 2.013698 3.962617 7.082945 6.126961 0.389723 -1.776817 64.216496 8.947126 16.825396 -3.916769 0.000000 0.000000 0.000000 
